<svg viewBox="0 0 80 80" xmlns="http://www.w3.org/2000/svg" width="100%" height="100%">
  <rect width="80" height="80" fill="#f0eee8" />
  <path d="M63 0h17v15q-9 3-14-4-5-6-3-11Z" fill="#cfe9c6" />
  <path d="M0 55q12 5 18 13 3 5 3 12H0Z" fill="#a9d6f0" />
  <g fill="#e3ded4">
    <rect x="4" y="4" width="17" height="12" rx="1.5" />
    <rect x="35" y="4" width="14" height="12" rx="1.5" />
    <rect x="4" y="26" width="9" height="14" rx="1.5" />
    <rect x="62" y="50" width="14" height="12" rx="1.5" />
  </g>
  <g fill="none" stroke="#d6dae0" stroke-linecap="round">
    <path d="M0 20.5h80M22 68h58" stroke-width="3.4" />
    <path d="M0 46q26-3 44 1t36 0" stroke-width="6.8" />
    <path d="M28 0q3 20 0 40t1 40" stroke-width="5.8" />
  </g>
  <g fill="none" stroke="#fff" stroke-linecap="round">
    <path d="M0 20.5h80M22 68h58" stroke-width="2.1" />
    <path d="M0 46q26-3 44 1t36 0" stroke-width="5" />
    <path d="M28 0q3 20 0 40t1 40" stroke-width="4" />
  </g>
  <circle cx="40" cy="41" r="21" fill="#334155" opacity="0.14" />
  <circle cx="40" cy="39" r="20" fill="#4c78d5" />
  <!-- Citizen-science sensor stations. -->
  <path d="M35.76 43.24C34.67 42.16 34 40.66 34 39s.67-3.16 1.76-4.24l1.42 1.42C36.45 36.9 36 37.9 36 39s.45 2.1 1.17 2.83zm8.48 0C45.33 42.16 46 40.66 46 39s-.67-3.16-1.76-4.24l-1.42 1.42C43.55 36.9 44 37.9 44 39s-.45 2.1-1.17 2.83zM40 37c-1.1 0-2 .9-2 2s.9 2 2 2 2-.9 2-2-.9-2-2-2m8 2c0 2.21-.9 4.21-2.35 5.65l1.42 1.42C48.88 44.26 50 41.76 50 39s-1.12-5.26-2.93-7.07l-1.42 1.42A7.94 7.94 0 0 1 48 39m-13.65-5.65-1.42-1.42C31.12 33.74 30 36.24 30 39s1.12 5.26 2.93 7.07l1.42-1.42C32.9 43.21 32 41.21 32 39s.9-4.21 2.35-5.65" fill="#fff" />
</svg>
