<svg viewBox="0 0 80 80" xmlns="http://www.w3.org/2000/svg" width="100%" height="100%">
  <rect width="80" height="80" fill="#f0eee8" />
  <path d="M63 0h17v15q-9 3-14-4-5-6-3-11Z" fill="#cfe9c6" />
  <path d="M0 55q12 5 18 13 3 5 3 12H0Z" fill="#a9d6f0" />
  <g fill="#e3ded4">
    <rect x="4" y="4" width="17" height="12" rx="1.5" />
    <rect x="35" y="4" width="14" height="12" rx="1.5" />
    <rect x="4" y="26" width="9" height="14" rx="1.5" />
    <rect x="62" y="50" width="14" height="12" rx="1.5" />
  </g>
  <g fill="none" stroke="#d6dae0" stroke-linecap="round">
    <path d="M0 20.5h80M22 68h58" stroke-width="3.4" />
    <path d="M0 46q26-3 44 1t36 0" stroke-width="6.8" />
    <path d="M28 0q3 20 0 40t1 40" stroke-width="5.8" />
  </g>
  <g fill="none" stroke="#fff" stroke-linecap="round">
    <path d="M0 20.5h80M22 68h58" stroke-width="2.1" />
    <path d="M0 46q26-3 44 1t36 0" stroke-width="5" />
    <path d="M28 0q3 20 0 40t1 40" stroke-width="4" />
  </g>
  <circle cx="40" cy="41" r="21" fill="#334155" opacity="0.14" />
  <circle cx="40" cy="39" r="20" fill="#4f55a7" />
  <!-- Satellite rather than a miniature raster swatch; the layer spans many datasets. -->
  <path d="m43.44 27.59-3.18 3.18c-.78.78-.78 2.05 0 2.83l1.24 1.24-.71.71-1.24-1.25c-.78-.78-2.05-.78-2.83 0l-1.42 1.42c-.78.78-.78 2.05 0 2.83l1.24 1.24-.71.71-1.23-1.25c-.78-.78-2.05-.78-2.83 0l-3.18 3.18c-.78.78-.78 2.05 0 2.83l3.54 3.54c.78.78 2.05.78 2.83 0l3.18-3.18c.78-.78.78-2.05 0-2.83l-1.24-1.24.71-.71 1.24 1.24c.78.78 2.05.78 2.83 0l1.41-1.41c.78-.78.78-2.05 0-2.83l-1.25-1.24.71-.71 1.24 1.24c.78.78 2.05.78 2.83 0l3.18-3.18c.78-.78.78-2.05 0-2.83l-3.54-3.54c-.78-.78-2.04-.78-2.82.01M34.6 46.32l-1.06 1.06L30 43.85l1.06-1.06Zm2.12-2.12-1.06 1.06-3.54-3.54 1.06-1.06Zm9.54-9.54-1.06 1.06-3.54-3.54 1.06-1.06Zm2.12-2.12-1.06 1.06-3.54-3.54L44.85 29ZM42 48v2c4.97 0 9-4.03 9-9h-2c0 3.87-3.13 7-7 7m0-4v2c2.76 0 5-2.24 5-5h-2c0 1.66-1.34 3-3 3" fill="#fff" />
</svg>
