<svg viewBox="0 0 80 80" xmlns="http://www.w3.org/2000/svg" width="100%" height="100%">
  <rect width="80" height="80" fill="#f0eee8" />
  <path d="M63 0h17v15q-9 3-14-4-5-6-3-11Z" fill="#cfe9c6" />
  <path d="M0 55q12 5 18 13 3 5 3 12H0Z" fill="#a9d6f0" />
  <g fill="#e3ded4">
    <rect x="4" y="4" width="17" height="12" rx="1.5" />
    <rect x="35" y="4" width="14" height="12" rx="1.5" />
    <rect x="4" y="26" width="9" height="14" rx="1.5" />
    <rect x="62" y="50" width="14" height="12" rx="1.5" />
  </g>
  <g fill="none" stroke="#d6dae0" stroke-linecap="round">
    <path d="M0 20.5h80M22 68h58" stroke-width="3.4" />
    <path d="M0 46q26-3 44 1t36 0" stroke-width="6.8" />
    <path d="M28 0q3 20 0 40t1 40" stroke-width="5.8" />
  </g>
  <g fill="none" stroke="#fff" stroke-linecap="round">
    <path d="M0 20.5h80M22 68h58" stroke-width="2.1" />
    <path d="M0 46q26-3 44 1t36 0" stroke-width="5" />
    <path d="M28 0q3 20 0 40t1 40" stroke-width="4" />
  </g>
  <circle cx="40" cy="41" r="21" fill="#334155" opacity="0.14" />
  <circle cx="40" cy="39" r="20" fill="#e6a01e" />
  <!-- One road-hazard sign covers incidents, closures, construction and obstructions. -->
  <path d="M29 48h22L40 29Zm12-3h-2v-2h2Zm0-4h-2v-4h2Z" fill="#fff" />
</svg>
