<svg viewBox="0 0 80 80" xmlns="http://www.w3.org/2000/svg" width="100%" height="100%">
  <rect width="80" height="80" fill="#f0eee8" />
  <path d="M63 0h17v15q-9 3-14-4-5-6-3-11Z" fill="#cfe9c6" />
  <path d="M0 55q12 5 18 13 3 5 3 12H0Z" fill="#a9d6f0" />
  <g fill="#e3ded4">
    <rect x="4" y="4" width="17" height="12" rx="1.5" />
    <rect x="35" y="4" width="14" height="12" rx="1.5" />
    <rect x="4" y="26" width="9" height="14" rx="1.5" />
    <rect x="62" y="50" width="14" height="12" rx="1.5" />
  </g>
  <g fill="none" stroke="#d6dae0" stroke-linecap="round">
    <path d="M0 20.5h80M22 68h58" stroke-width="3.4" />
    <path d="M0 46q26-3 44 1t36 0" stroke-width="6.8" />
    <path d="M28 0q3 20 0 40t1 40" stroke-width="5.8" />
  </g>
  <g fill="none" stroke="#fff" stroke-linecap="round">
    <path d="M0 20.5h80M22 68h58" stroke-width="2.1" />
    <path d="M0 46q26-3 44 1t36 0" stroke-width="5" />
    <path d="M28 0q3 20 0 40t1 40" stroke-width="4" />
  </g>
  <circle cx="40" cy="41" r="21" fill="#334155" opacity="0.14" />
  <circle cx="40" cy="39" r="20" fill="#3e83d5" />
  <!-- General weather cue; no single radar, temperature, or precipitation layer dominates. -->
  <circle cx="46.5" cy="33" r="6.2" fill="#ffd166" />
  <path d="M45.5 37c-.55-2.85-3-4.95-6-4.95-2.35 0-4.4 1.35-5.45 3.3-2.45.25-4.35 2.35-4.35 4.85 0 2.75 2.2 4.9 4.9 4.9h10.55c2.25 0 4.05-1.8 4.05-4.05 0-2.15-1.65-3.9-3.7-4.05Z" fill="#fff" />
  <g stroke="#bde5ff" stroke-width="1.8" stroke-linecap="round">
    <path d="M34 47.5l-1.4 3M40 47.5l-1.4 3M46 47.5l-1.4 3" />
  </g>
</svg>
